<svg width="117" height="30" viewBox="0 0 117 30" fill="none" xmlns="http://www.w3.org/2000/svg">
<circle cx="15" cy="15" r="14.25" stroke="black" stroke-width="1.5"/>
<circle cx="15" cy="15" r="8.25" fill="black" stroke="black" stroke-width="1.5"/>
<path d="M43.4886 5.54545V23H39.321V5.54545H43.4886ZM52.2607 23.2472C50.8913 23.2472 49.7095 22.9773 48.7152 22.4375C47.7266 21.892 46.9652 21.1165 46.4311 20.1108C45.9027 19.0994 45.6385 17.8977 45.6385 16.5057C45.6385 15.1534 45.9055 13.9716 46.4396 12.9602C46.9737 11.9432 47.7266 11.1534 48.6982 10.5909C49.6697 10.0227 50.8146 9.73864 52.1328 9.73864C53.0646 9.73864 53.9169 9.88352 54.6896 10.1733C55.4624 10.4631 56.13 10.892 56.6925 11.4602C57.255 12.0284 57.6925 12.7301 58.005 13.5653C58.3175 14.3949 58.4737 15.3466 58.4737 16.4205V17.4602H47.0959V15.0398H54.5959C54.5902 14.5966 54.4851 14.2017 54.2805 13.8551C54.076 13.5085 53.7947 13.2386 53.4368 13.0455C53.0845 12.8466 52.6783 12.7472 52.218 12.7472C51.7521 12.7472 51.3345 12.8523 50.9652 13.0625C50.5959 13.267 50.3033 13.5483 50.0874 13.9062C49.8714 14.2585 49.7578 14.6591 49.7464 15.108V17.571C49.7464 18.1051 49.8516 18.5739 50.0618 18.9773C50.272 19.375 50.5703 19.6847 50.9567 19.9062C51.343 20.1278 51.8033 20.2386 52.3374 20.2386C52.7067 20.2386 53.0419 20.1875 53.343 20.0852C53.6442 19.983 53.9027 19.8324 54.1186 19.6335C54.3345 19.4347 54.4964 19.1903 54.6044 18.9006L58.4311 19.0114C58.272 19.8693 57.9226 20.6165 57.3828 21.2528C56.8487 21.8835 56.147 22.375 55.2777 22.7273C54.4084 23.0739 53.4027 23.2472 52.2607 23.2472ZM64.7699 15.5341V23H60.6023V9.90909H64.5653V12.3125H64.7102C65 11.5114 65.4943 10.8835 66.1932 10.429C66.892 9.96875 67.7244 9.73864 68.6903 9.73864C69.6108 9.73864 70.4091 9.94602 71.0852 10.3608C71.767 10.7699 72.2955 11.3437 72.6705 12.0824C73.0511 12.8153 73.2386 13.6733 73.233 14.6562V23H69.0653V15.4744C69.071 14.7472 68.8864 14.179 68.5114 13.7699C68.142 13.3608 67.6278 13.1562 66.9688 13.1562C66.5312 13.1562 66.1449 13.2528 65.8097 13.446C65.4801 13.6335 65.2244 13.9034 65.0426 14.2557C64.8665 14.608 64.7756 15.0341 64.7699 15.5341ZM79.3587 9.90909L81.5149 14.2216L83.7479 9.90909H87.9496L84.2933 16.4545L88.0859 23H83.9183L81.5149 18.6534L79.1712 23H74.9439L78.745 16.4545L75.1314 9.90909H79.3587ZM95.5028 23.2472C94.1335 23.2472 92.9517 22.9773 91.9574 22.4375C90.9688 21.892 90.2074 21.1165 89.6733 20.1108C89.1449 19.0994 88.8807 17.8977 88.8807 16.5057C88.8807 15.1534 89.1477 13.9716 89.6818 12.9602C90.2159 11.9432 90.9688 11.1534 91.9403 10.5909C92.9119 10.0227 94.0568 9.73864 95.375 9.73864C96.3068 9.73864 97.1591 9.88352 97.9318 10.1733C98.7045 10.4631 99.3722 10.892 99.9347 11.4602C100.497 12.0284 100.935 12.7301 101.247 13.5653C101.56 14.3949 101.716 15.3466 101.716 16.4205V17.4602H90.3381V15.0398H97.8381C97.8324 14.5966 97.7273 14.2017 97.5227 13.8551C97.3182 13.5085 97.0369 13.2386 96.679 13.0455C96.3267 12.8466 95.9205 12.7472 95.4602 12.7472C94.9943 12.7472 94.5767 12.8523 94.2074 13.0625C93.8381 13.267 93.5455 13.5483 93.3295 13.9062C93.1136 14.2585 93 14.6591 92.9886 15.108V17.571C92.9886 18.1051 93.0938 18.5739 93.304 18.9773C93.5142 19.375 93.8125 19.6847 94.1989 19.9062C94.5852 20.1278 95.0455 20.2386 95.5795 20.2386C95.9489 20.2386 96.2841 20.1875 96.5852 20.0852C96.8864 19.983 97.1449 19.8324 97.3608 19.6335C97.5767 19.4347 97.7386 19.1903 97.8466 18.9006L101.673 19.0114C101.514 19.8693 101.165 20.6165 100.625 21.2528C100.091 21.8835 99.3892 22.375 98.5199 22.7273C97.6506 23.0739 96.6449 23.2472 95.5028 23.2472ZM115.273 13.9062L111.447 14.0085C111.407 13.7358 111.299 13.4943 111.123 13.2841C110.947 13.0682 110.717 12.9006 110.433 12.7812C110.154 12.6562 109.83 12.5938 109.461 12.5938C108.978 12.5938 108.566 12.6903 108.225 12.8835C107.89 13.0767 107.725 13.3381 107.731 13.6676C107.725 13.9233 107.827 14.1449 108.038 14.3324C108.254 14.5199 108.637 14.6705 109.188 14.7841L111.711 15.2614C113.018 15.5114 113.989 15.9261 114.626 16.5057C115.268 17.0852 115.592 17.8523 115.597 18.8068C115.592 19.7045 115.325 20.4858 114.796 21.1506C114.273 21.8153 113.558 22.3324 112.648 22.7017C111.739 23.0653 110.7 23.2472 109.529 23.2472C107.66 23.2472 106.185 22.8636 105.106 22.0966C104.032 21.3239 103.418 20.2898 103.265 18.9943L107.381 18.892C107.472 19.3693 107.708 19.733 108.089 19.983C108.469 20.233 108.955 20.358 109.546 20.358C110.08 20.358 110.515 20.2585 110.85 20.0597C111.185 19.8608 111.356 19.5966 111.362 19.267C111.356 18.9716 111.225 18.7358 110.969 18.5597C110.714 18.3778 110.313 18.2358 109.768 18.1335L107.484 17.6989C106.171 17.4602 105.194 17.0199 104.552 16.3778C103.91 15.7301 103.592 14.9062 103.597 13.9062C103.592 13.0312 103.825 12.2841 104.296 11.6648C104.768 11.0398 105.438 10.5625 106.308 10.233C107.177 9.90341 108.202 9.73864 109.384 9.73864C111.157 9.73864 112.555 10.1108 113.577 10.8551C114.6 11.5937 115.165 12.6108 115.273 13.9062Z" fill="black"/>
<path d="M15 14.6562V8.95312M12.1875 12.2344L15 15.0469L17.8125 12.2344H12.1875Z" stroke="white" stroke-width="2" stroke-linecap="round" stroke-linejoin="round"/>
</svg>
